<mxfile host="app.diagrams.net" modified="2024-05-27T02:40:20.724Z" agent="Mozilla/5.0 (Macintosh; Intel Mac OS X 10_15_7) AppleWebKit/537.36 (KHTML, like Gecko) Chrome/124.0.0.0 Safari/537.36" etag="Hr7rvDMcNRWD0WHH5Dy9" version="24.4.3" type="github">
  <diagram name="第 1 页" id="RBEY_2A4oiBo1kz_87f3">
    <mxGraphModel dx="901" dy="483" grid="1" gridSize="10" guides="1" tooltips="1" connect="1" arrows="1" fold="1" page="1" pageScale="1" pageWidth="827" pageHeight="1169" math="0" shadow="0">
      <root>
        <mxCell id="0" />
        <mxCell id="1" parent="0" />
        <mxCell id="2kVt4sEsCDVhdZk_hCZK-8" value="&lt;div class=&quot;lake-content&quot;&gt;&lt;p style=&quot;margin: 0; padding: 0; min-height: 24px&quot; class=&quot;ne-p&quot; id=&quot;u88637d2d&quot;&gt;&lt;br&gt;&lt;/p&gt;&lt;/div&gt;" style="rounded=1;whiteSpace=wrap;html=1;fillColor=none;" vertex="1" parent="1">
          <mxGeometry x="75" y="210" width="260" height="90" as="geometry" />
        </mxCell>
        <mxCell id="2kVt4sEsCDVhdZk_hCZK-17" style="edgeStyle=orthogonalEdgeStyle;rounded=0;orthogonalLoop=1;jettySize=auto;html=1;exitX=0.5;exitY=1;exitDx=0;exitDy=0;entryX=0.5;entryY=0;entryDx=0;entryDy=0;" edge="1" parent="1" source="2kVt4sEsCDVhdZk_hCZK-1" target="2kVt4sEsCDVhdZk_hCZK-8">
          <mxGeometry relative="1" as="geometry" />
        </mxCell>
        <mxCell id="2kVt4sEsCDVhdZk_hCZK-1" value="&lt;div class=&quot;lake-content&quot;&gt;&lt;p style=&quot;margin: 0; padding: 0; min-height: 24px&quot; class=&quot;ne-p&quot; id=&quot;u88637d2d&quot;&gt;&lt;span class=&quot;ne-text&quot;&gt;initCache&lt;/span&gt;&lt;/p&gt;&lt;/div&gt;" style="rounded=1;whiteSpace=wrap;html=1;fillColor=none;" vertex="1" parent="1">
          <mxGeometry x="147.5" y="130" width="115" height="50" as="geometry" />
        </mxCell>
        <mxCell id="2kVt4sEsCDVhdZk_hCZK-3" style="edgeStyle=orthogonalEdgeStyle;rounded=0;orthogonalLoop=1;jettySize=auto;html=1;exitX=0.5;exitY=1;exitDx=0;exitDy=0;entryX=0.5;entryY=0;entryDx=0;entryDy=0;" edge="1" parent="1" source="2kVt4sEsCDVhdZk_hCZK-2" target="2kVt4sEsCDVhdZk_hCZK-1">
          <mxGeometry relative="1" as="geometry" />
        </mxCell>
        <mxCell id="2kVt4sEsCDVhdZk_hCZK-2" value="项目启动" style="ellipse;whiteSpace=wrap;html=1;fillColor=none;" vertex="1" parent="1">
          <mxGeometry x="160" y="30" width="90" height="50" as="geometry" />
        </mxCell>
        <mxCell id="2kVt4sEsCDVhdZk_hCZK-12" style="edgeStyle=orthogonalEdgeStyle;rounded=0;orthogonalLoop=1;jettySize=auto;html=1;exitX=1;exitY=0.5;exitDx=0;exitDy=0;entryX=0;entryY=0.5;entryDx=0;entryDy=0;" edge="1" parent="1" source="2kVt4sEsCDVhdZk_hCZK-5" target="2kVt4sEsCDVhdZk_hCZK-6">
          <mxGeometry relative="1" as="geometry" />
        </mxCell>
        <mxCell id="2kVt4sEsCDVhdZk_hCZK-52" style="edgeStyle=orthogonalEdgeStyle;rounded=0;orthogonalLoop=1;jettySize=auto;html=1;exitX=0.5;exitY=1;exitDx=0;exitDy=0;entryX=0;entryY=0.5;entryDx=0;entryDy=0;" edge="1" parent="1" source="2kVt4sEsCDVhdZk_hCZK-5" target="2kVt4sEsCDVhdZk_hCZK-47">
          <mxGeometry relative="1" as="geometry" />
        </mxCell>
        <mxCell id="2kVt4sEsCDVhdZk_hCZK-5" value="&lt;div class=&quot;lake-content&quot;&gt;&lt;p style=&quot;font-size: 9px; margin: 0px; padding: 0px; min-height: 24px;&quot; class=&quot;ne-p&quot; id=&quot;u88637d2d&quot;&gt;init&lt;/p&gt;&lt;p style=&quot;font-size: 9px; margin: 0px; padding: 0px; min-height: 24px;&quot; class=&quot;ne-p&quot; id=&quot;u88637d2d&quot;&gt;cache&lt;/p&gt;&lt;p style=&quot;font-size: 9px; margin: 0px; padding: 0px; min-height: 24px;&quot; class=&quot;ne-p&quot; id=&quot;u88637d2d&quot;&gt;2&lt;/p&gt;&lt;/div&gt;" style="rounded=1;whiteSpace=wrap;html=1;fillColor=none;" vertex="1" parent="1">
          <mxGeometry x="140" y="220" width="30" height="70" as="geometry" />
        </mxCell>
        <mxCell id="2kVt4sEsCDVhdZk_hCZK-14" style="edgeStyle=orthogonalEdgeStyle;rounded=0;orthogonalLoop=1;jettySize=auto;html=1;exitX=1;exitY=0.5;exitDx=0;exitDy=0;entryX=0;entryY=0.5;entryDx=0;entryDy=0;" edge="1" parent="1" source="2kVt4sEsCDVhdZk_hCZK-6" target="2kVt4sEsCDVhdZk_hCZK-7">
          <mxGeometry relative="1" as="geometry" />
        </mxCell>
        <mxCell id="2kVt4sEsCDVhdZk_hCZK-55" style="edgeStyle=orthogonalEdgeStyle;rounded=0;orthogonalLoop=1;jettySize=auto;html=1;exitX=0.5;exitY=1;exitDx=0;exitDy=0;entryX=0;entryY=0.5;entryDx=0;entryDy=0;" edge="1" parent="1" source="2kVt4sEsCDVhdZk_hCZK-6" target="2kVt4sEsCDVhdZk_hCZK-46">
          <mxGeometry relative="1" as="geometry" />
        </mxCell>
        <mxCell id="2kVt4sEsCDVhdZk_hCZK-6" value="&lt;div class=&quot;lake-content&quot;&gt;&lt;p style=&quot;font-size: 9px; margin: 0px; padding: 0px; min-height: 24px;&quot; class=&quot;ne-p&quot; id=&quot;u88637d2d&quot;&gt;init&lt;/p&gt;&lt;p style=&quot;font-size: 9px; margin: 0px; padding: 0px; min-height: 24px;&quot; class=&quot;ne-p&quot; id=&quot;u88637d2d&quot;&gt;cache&lt;/p&gt;&lt;p style=&quot;font-size: 9px; margin: 0px; padding: 0px; min-height: 24px;&quot; class=&quot;ne-p&quot; id=&quot;u88637d2d&quot;&gt;3&lt;/p&gt;&lt;/div&gt;" style="rounded=1;whiteSpace=wrap;html=1;fillColor=none;" vertex="1" parent="1">
          <mxGeometry x="190" y="220" width="30" height="70" as="geometry" />
        </mxCell>
        <mxCell id="2kVt4sEsCDVhdZk_hCZK-16" style="edgeStyle=orthogonalEdgeStyle;rounded=0;orthogonalLoop=1;jettySize=auto;html=1;exitX=1;exitY=0.5;exitDx=0;exitDy=0;entryX=0;entryY=0.5;entryDx=0;entryDy=0;" edge="1" parent="1" source="2kVt4sEsCDVhdZk_hCZK-7" target="2kVt4sEsCDVhdZk_hCZK-15">
          <mxGeometry relative="1" as="geometry" />
        </mxCell>
        <mxCell id="2kVt4sEsCDVhdZk_hCZK-57" style="edgeStyle=orthogonalEdgeStyle;rounded=0;orthogonalLoop=1;jettySize=auto;html=1;exitX=0.5;exitY=1;exitDx=0;exitDy=0;entryX=0;entryY=0.5;entryDx=0;entryDy=0;" edge="1" parent="1" source="2kVt4sEsCDVhdZk_hCZK-7" target="2kVt4sEsCDVhdZk_hCZK-45">
          <mxGeometry relative="1" as="geometry" />
        </mxCell>
        <mxCell id="2kVt4sEsCDVhdZk_hCZK-7" value="&lt;div class=&quot;lake-content&quot;&gt;&lt;p style=&quot;font-size: 9px; margin: 0px; padding: 0px; min-height: 24px;&quot; class=&quot;ne-p&quot; id=&quot;u88637d2d&quot;&gt;init&lt;/p&gt;&lt;p style=&quot;font-size: 9px; margin: 0px; padding: 0px; min-height: 24px;&quot; class=&quot;ne-p&quot; id=&quot;u88637d2d&quot;&gt;cache&lt;/p&gt;&lt;p style=&quot;font-size: 9px; margin: 0px; padding: 0px; min-height: 24px;&quot; class=&quot;ne-p&quot; id=&quot;u88637d2d&quot;&gt;4&lt;/p&gt;&lt;/div&gt;" style="rounded=1;whiteSpace=wrap;html=1;fillColor=none;" vertex="1" parent="1">
          <mxGeometry x="240" y="220" width="30" height="70" as="geometry" />
        </mxCell>
        <mxCell id="2kVt4sEsCDVhdZk_hCZK-10" style="edgeStyle=orthogonalEdgeStyle;rounded=0;orthogonalLoop=1;jettySize=auto;html=1;exitX=1;exitY=0.5;exitDx=0;exitDy=0;entryX=0;entryY=0.5;entryDx=0;entryDy=0;" edge="1" parent="1" source="2kVt4sEsCDVhdZk_hCZK-9" target="2kVt4sEsCDVhdZk_hCZK-5">
          <mxGeometry relative="1" as="geometry" />
        </mxCell>
        <mxCell id="2kVt4sEsCDVhdZk_hCZK-49" style="edgeStyle=orthogonalEdgeStyle;rounded=0;orthogonalLoop=1;jettySize=auto;html=1;exitX=0.5;exitY=1;exitDx=0;exitDy=0;entryX=0;entryY=0.5;entryDx=0;entryDy=0;" edge="1" parent="1" source="2kVt4sEsCDVhdZk_hCZK-9" target="2kVt4sEsCDVhdZk_hCZK-48">
          <mxGeometry relative="1" as="geometry" />
        </mxCell>
        <mxCell id="2kVt4sEsCDVhdZk_hCZK-9" value="&lt;div style=&quot;font-size: 9px;&quot; class=&quot;lake-content&quot;&gt;&lt;p style=&quot;margin: 0; padding: 0; min-height: 24px&quot; class=&quot;ne-p&quot; id=&quot;u88637d2d&quot;&gt;init&lt;/p&gt;&lt;p style=&quot;margin: 0; padding: 0; min-height: 24px&quot; class=&quot;ne-p&quot; id=&quot;u88637d2d&quot;&gt;cache&lt;/p&gt;&lt;p style=&quot;margin: 0; padding: 0; min-height: 24px&quot; class=&quot;ne-p&quot; id=&quot;u88637d2d&quot;&gt;1&lt;/p&gt;&lt;/div&gt;" style="rounded=1;whiteSpace=wrap;html=1;fillColor=none;" vertex="1" parent="1">
          <mxGeometry x="90" y="220" width="30" height="70" as="geometry" />
        </mxCell>
        <mxCell id="2kVt4sEsCDVhdZk_hCZK-15" value="&lt;div class=&quot;lake-content&quot;&gt;&lt;p style=&quot;font-size: 9px; margin: 0px; padding: 0px; min-height: 24px;&quot; class=&quot;ne-p&quot; id=&quot;u88637d2d&quot;&gt;...&lt;/p&gt;&lt;/div&gt;" style="rounded=1;whiteSpace=wrap;html=1;fillColor=none;" vertex="1" parent="1">
          <mxGeometry x="290" y="220" width="30" height="70" as="geometry" />
        </mxCell>
        <mxCell id="2kVt4sEsCDVhdZk_hCZK-18" value="&lt;div class=&quot;lake-content&quot;&gt;&lt;p style=&quot;margin: 0; padding: 0; min-height: 24px&quot; class=&quot;ne-p&quot; id=&quot;u88637d2d&quot;&gt;&lt;br&gt;&lt;/p&gt;&lt;/div&gt;" style="rounded=1;whiteSpace=wrap;html=1;fillColor=none;dashed=1;" vertex="1" parent="1">
          <mxGeometry x="320" y="365" width="160" height="215" as="geometry" />
        </mxCell>
        <mxCell id="2kVt4sEsCDVhdZk_hCZK-32" style="edgeStyle=orthogonalEdgeStyle;rounded=0;orthogonalLoop=1;jettySize=auto;html=1;exitX=0.5;exitY=1;exitDx=0;exitDy=0;" edge="1" parent="1" source="2kVt4sEsCDVhdZk_hCZK-25" target="2kVt4sEsCDVhdZk_hCZK-26">
          <mxGeometry relative="1" as="geometry" />
        </mxCell>
        <mxCell id="2kVt4sEsCDVhdZk_hCZK-25" value="精卫触发" style="ellipse;whiteSpace=wrap;html=1;fillColor=none;" vertex="1" parent="1">
          <mxGeometry x="540" y="30" width="90" height="50" as="geometry" />
        </mxCell>
        <mxCell id="2kVt4sEsCDVhdZk_hCZK-34" style="edgeStyle=orthogonalEdgeStyle;rounded=0;orthogonalLoop=1;jettySize=auto;html=1;exitX=0.5;exitY=1;exitDx=0;exitDy=0;entryX=0.5;entryY=0;entryDx=0;entryDy=0;dashed=1;" edge="1" parent="1" source="2kVt4sEsCDVhdZk_hCZK-26" target="2kVt4sEsCDVhdZk_hCZK-27">
          <mxGeometry relative="1" as="geometry" />
        </mxCell>
        <mxCell id="2kVt4sEsCDVhdZk_hCZK-35" style="edgeStyle=orthogonalEdgeStyle;rounded=0;orthogonalLoop=1;jettySize=auto;html=1;exitX=0.5;exitY=1;exitDx=0;exitDy=0;entryX=0.5;entryY=0;entryDx=0;entryDy=0;dashed=1;" edge="1" parent="1" source="2kVt4sEsCDVhdZk_hCZK-26" target="2kVt4sEsCDVhdZk_hCZK-28">
          <mxGeometry relative="1" as="geometry" />
        </mxCell>
        <mxCell id="2kVt4sEsCDVhdZk_hCZK-36" style="edgeStyle=orthogonalEdgeStyle;rounded=0;orthogonalLoop=1;jettySize=auto;html=1;exitX=0.5;exitY=1;exitDx=0;exitDy=0;entryX=0.5;entryY=0;entryDx=0;entryDy=0;dashed=1;" edge="1" parent="1" source="2kVt4sEsCDVhdZk_hCZK-26" target="2kVt4sEsCDVhdZk_hCZK-29">
          <mxGeometry relative="1" as="geometry" />
        </mxCell>
        <mxCell id="2kVt4sEsCDVhdZk_hCZK-37" style="edgeStyle=orthogonalEdgeStyle;rounded=0;orthogonalLoop=1;jettySize=auto;html=1;exitX=0.5;exitY=1;exitDx=0;exitDy=0;entryX=0.5;entryY=0;entryDx=0;entryDy=0;dashed=1;" edge="1" parent="1" source="2kVt4sEsCDVhdZk_hCZK-26" target="2kVt4sEsCDVhdZk_hCZK-31">
          <mxGeometry relative="1" as="geometry" />
        </mxCell>
        <mxCell id="2kVt4sEsCDVhdZk_hCZK-26" value="&lt;div class=&quot;lake-content&quot;&gt;&lt;p style=&quot;margin: 0; padding: 0; min-height: 24px&quot; class=&quot;ne-p&quot; id=&quot;u88637d2d&quot;&gt;&lt;span class=&quot;ne-text&quot;&gt;change&lt;/span&gt;&lt;/p&gt;&lt;/div&gt;" style="rounded=1;whiteSpace=wrap;html=1;fillColor=none;" vertex="1" parent="1">
          <mxGeometry x="527.5" y="120" width="115" height="50" as="geometry" />
        </mxCell>
        <mxCell id="2kVt4sEsCDVhdZk_hCZK-56" style="edgeStyle=orthogonalEdgeStyle;rounded=0;orthogonalLoop=1;jettySize=auto;html=1;exitX=0.5;exitY=1;exitDx=0;exitDy=0;entryX=1;entryY=0.5;entryDx=0;entryDy=0;" edge="1" parent="1" source="2kVt4sEsCDVhdZk_hCZK-27" target="2kVt4sEsCDVhdZk_hCZK-45">
          <mxGeometry relative="1" as="geometry" />
        </mxCell>
        <mxCell id="2kVt4sEsCDVhdZk_hCZK-27" value="&lt;div class=&quot;lake-content&quot;&gt;&lt;p style=&quot;font-size: 9px; margin: 0px; padding: 0px; min-height: 24px;&quot; class=&quot;ne-p&quot; id=&quot;u88637d2d&quot;&gt;change&lt;br&gt;&lt;/p&gt;&lt;p style=&quot;font-size: 9px; margin: 0px; padding: 0px; min-height: 24px;&quot; class=&quot;ne-p&quot; id=&quot;u88637d2d&quot;&gt;cache&lt;/p&gt;&lt;p style=&quot;font-size: 9px; margin: 0px; padding: 0px; min-height: 24px;&quot; class=&quot;ne-p&quot; id=&quot;u88637d2d&quot;&gt;4&lt;/p&gt;&lt;/div&gt;" style="rounded=1;whiteSpace=wrap;html=1;fillColor=none;flipV=0;flipH=1;" vertex="1" parent="1">
          <mxGeometry x="520" y="220" width="30" height="70" as="geometry" />
        </mxCell>
        <mxCell id="2kVt4sEsCDVhdZk_hCZK-54" style="edgeStyle=orthogonalEdgeStyle;rounded=0;orthogonalLoop=1;jettySize=auto;html=1;exitX=0.5;exitY=1;exitDx=0;exitDy=0;entryX=1;entryY=0.5;entryDx=0;entryDy=0;" edge="1" parent="1" source="2kVt4sEsCDVhdZk_hCZK-28" target="2kVt4sEsCDVhdZk_hCZK-46">
          <mxGeometry relative="1" as="geometry" />
        </mxCell>
        <mxCell id="2kVt4sEsCDVhdZk_hCZK-28" value="&lt;div class=&quot;lake-content&quot;&gt;&lt;p style=&quot;font-size: 9px; margin: 0px; padding: 0px; min-height: 24px;&quot; class=&quot;ne-p&quot; id=&quot;u88637d2d&quot;&gt;change&lt;br&gt;&lt;/p&gt;&lt;p style=&quot;font-size: 9px; margin: 0px; padding: 0px; min-height: 24px;&quot; class=&quot;ne-p&quot; id=&quot;u88637d2d&quot;&gt;cache&lt;/p&gt;&lt;p style=&quot;font-size: 9px; margin: 0px; padding: 0px; min-height: 24px;&quot; class=&quot;ne-p&quot; id=&quot;u88637d2d&quot;&gt;3&lt;/p&gt;&lt;/div&gt;" style="rounded=1;whiteSpace=wrap;html=1;fillColor=none;flipV=0;flipH=1;" vertex="1" parent="1">
          <mxGeometry x="570" y="220" width="30" height="70" as="geometry" />
        </mxCell>
        <mxCell id="2kVt4sEsCDVhdZk_hCZK-53" style="edgeStyle=orthogonalEdgeStyle;rounded=0;orthogonalLoop=1;jettySize=auto;html=1;exitX=0.5;exitY=1;exitDx=0;exitDy=0;entryX=1;entryY=0.5;entryDx=0;entryDy=0;" edge="1" parent="1" source="2kVt4sEsCDVhdZk_hCZK-29" target="2kVt4sEsCDVhdZk_hCZK-47">
          <mxGeometry relative="1" as="geometry" />
        </mxCell>
        <mxCell id="2kVt4sEsCDVhdZk_hCZK-29" value="&lt;div class=&quot;lake-content&quot;&gt;&lt;p style=&quot;font-size: 9px; margin: 0px; padding: 0px; min-height: 24px;&quot; class=&quot;ne-p&quot; id=&quot;u88637d2d&quot;&gt;change&lt;br&gt;&lt;/p&gt;&lt;p style=&quot;font-size: 9px; margin: 0px; padding: 0px; min-height: 24px;&quot; class=&quot;ne-p&quot; id=&quot;u88637d2d&quot;&gt;cache&lt;/p&gt;&lt;p style=&quot;font-size: 9px; margin: 0px; padding: 0px; min-height: 24px;&quot; class=&quot;ne-p&quot; id=&quot;u88637d2d&quot;&gt;2&lt;/p&gt;&lt;/div&gt;" style="rounded=1;whiteSpace=wrap;html=1;fillColor=none;flipV=0;flipH=1;" vertex="1" parent="1">
          <mxGeometry x="620" y="220" width="30" height="70" as="geometry" />
        </mxCell>
        <mxCell id="2kVt4sEsCDVhdZk_hCZK-30" value="&lt;div style=&quot;font-size: 9px;&quot; class=&quot;lake-content&quot;&gt;&lt;p style=&quot;margin: 0; padding: 0; min-height: 24px&quot; class=&quot;ne-p&quot; id=&quot;u88637d2d&quot;&gt;...&lt;/p&gt;&lt;/div&gt;" style="rounded=1;whiteSpace=wrap;html=1;fillColor=none;flipV=0;flipH=1;" vertex="1" parent="1">
          <mxGeometry x="470" y="220" width="30" height="70" as="geometry" />
        </mxCell>
        <mxCell id="2kVt4sEsCDVhdZk_hCZK-51" style="edgeStyle=orthogonalEdgeStyle;rounded=0;orthogonalLoop=1;jettySize=auto;html=1;exitX=0.5;exitY=1;exitDx=0;exitDy=0;entryX=1;entryY=0.5;entryDx=0;entryDy=0;" edge="1" parent="1" source="2kVt4sEsCDVhdZk_hCZK-31" target="2kVt4sEsCDVhdZk_hCZK-48">
          <mxGeometry relative="1" as="geometry" />
        </mxCell>
        <mxCell id="2kVt4sEsCDVhdZk_hCZK-31" value="&lt;div class=&quot;lake-content&quot;&gt;&lt;p style=&quot;font-size: 9px; margin: 0px; padding: 0px; min-height: 24px;&quot; class=&quot;ne-p&quot; id=&quot;u88637d2d&quot;&gt;change&lt;/p&gt;&lt;p style=&quot;font-size: 9px; margin: 0px; padding: 0px; min-height: 24px;&quot; class=&quot;ne-p&quot; id=&quot;u88637d2d&quot;&gt;cache&lt;/p&gt;&lt;p style=&quot;font-size: 9px; margin: 0px; padding: 0px; min-height: 24px;&quot; class=&quot;ne-p&quot; id=&quot;u88637d2d&quot;&gt;1&lt;/p&gt;&lt;/div&gt;" style="rounded=1;whiteSpace=wrap;html=1;fillColor=none;flipV=0;flipH=1;" vertex="1" parent="1">
          <mxGeometry x="670" y="220" width="30" height="70" as="geometry" />
        </mxCell>
        <mxCell id="2kVt4sEsCDVhdZk_hCZK-33" style="edgeStyle=orthogonalEdgeStyle;rounded=0;orthogonalLoop=1;jettySize=auto;html=1;exitX=0.5;exitY=1;exitDx=0;exitDy=0;entryX=0.556;entryY=-0.056;entryDx=0;entryDy=0;entryPerimeter=0;dashed=1;" edge="1" parent="1" source="2kVt4sEsCDVhdZk_hCZK-26" target="2kVt4sEsCDVhdZk_hCZK-30">
          <mxGeometry relative="1" as="geometry" />
        </mxCell>
        <mxCell id="2kVt4sEsCDVhdZk_hCZK-38" value="cache Map" style="text;html=1;align=center;verticalAlign=middle;whiteSpace=wrap;rounded=0;" vertex="1" parent="1">
          <mxGeometry x="365" y="330" width="75" height="30" as="geometry" />
        </mxCell>
        <mxCell id="2kVt4sEsCDVhdZk_hCZK-42" value="&lt;div style=&quot;font-size: 9px; line-height: 250%;&quot; class=&quot;lake-content&quot;&gt;&lt;p style=&quot;margin: 0px; padding: 0px; min-height: 24px; line-height: 250%;&quot; class=&quot;ne-p&quot; id=&quot;u88637d2d&quot;&gt;&lt;span style=&quot;background-color: initial;&quot;&gt;...&lt;/span&gt;&lt;br&gt;&lt;/p&gt;&lt;/div&gt;" style="rounded=1;whiteSpace=wrap;html=1;fillColor=none;align=center;verticalAlign=middle;" vertex="1" parent="1">
          <mxGeometry x="360" y="390" width="80" height="20" as="geometry" />
        </mxCell>
        <mxCell id="2kVt4sEsCDVhdZk_hCZK-45" value="&lt;div style=&quot;font-size: 9px; line-height: 250%;&quot; class=&quot;lake-content&quot;&gt;&lt;p style=&quot;margin: 0px; padding: 0px; min-height: 24px; line-height: 250%;&quot; class=&quot;ne-p&quot; id=&quot;u88637d2d&quot;&gt;&lt;span style=&quot;background-color: initial;&quot;&gt;local cache key 4&lt;/span&gt;&lt;br&gt;&lt;/p&gt;&lt;/div&gt;" style="rounded=1;whiteSpace=wrap;html=1;fillColor=none;align=center;verticalAlign=middle;" vertex="1" parent="1">
          <mxGeometry x="360" y="430" width="80" height="20" as="geometry" />
        </mxCell>
        <mxCell id="2kVt4sEsCDVhdZk_hCZK-46" value="&lt;div style=&quot;font-size: 9px; line-height: 250%;&quot; class=&quot;lake-content&quot;&gt;&lt;p style=&quot;margin: 0px; padding: 0px; min-height: 24px; line-height: 250%;&quot; class=&quot;ne-p&quot; id=&quot;u88637d2d&quot;&gt;&lt;span style=&quot;background-color: initial;&quot;&gt;local cache key 3&lt;/span&gt;&lt;br&gt;&lt;/p&gt;&lt;/div&gt;" style="rounded=1;whiteSpace=wrap;html=1;fillColor=none;align=center;verticalAlign=middle;" vertex="1" parent="1">
          <mxGeometry x="360" y="470" width="80" height="20" as="geometry" />
        </mxCell>
        <mxCell id="2kVt4sEsCDVhdZk_hCZK-47" value="&lt;div style=&quot;font-size: 9px; line-height: 250%;&quot; class=&quot;lake-content&quot;&gt;&lt;p style=&quot;margin: 0px; padding: 0px; min-height: 24px; line-height: 250%;&quot; class=&quot;ne-p&quot; id=&quot;u88637d2d&quot;&gt;&lt;span style=&quot;background-color: initial;&quot;&gt;local cache key 2&lt;/span&gt;&lt;br&gt;&lt;/p&gt;&lt;/div&gt;" style="rounded=1;whiteSpace=wrap;html=1;fillColor=none;align=center;verticalAlign=middle;" vertex="1" parent="1">
          <mxGeometry x="360" y="510" width="80" height="20" as="geometry" />
        </mxCell>
        <mxCell id="2kVt4sEsCDVhdZk_hCZK-48" value="&lt;div style=&quot;font-size: 9px; line-height: 250%;&quot; class=&quot;lake-content&quot;&gt;&lt;p style=&quot;margin: 0px; padding: 0px; min-height: 24px; line-height: 250%;&quot; class=&quot;ne-p&quot; id=&quot;u88637d2d&quot;&gt;local cache key 1&lt;br&gt;&lt;/p&gt;&lt;/div&gt;" style="rounded=1;whiteSpace=wrap;html=1;fillColor=none;align=center;verticalAlign=middle;" vertex="1" parent="1">
          <mxGeometry x="360" y="550" width="80" height="20" as="geometry" />
        </mxCell>
      </root>
    </mxGraphModel>
  </diagram>
</mxfile>
